<svg width="25" height="32" viewBox="0 0 25 32" fill="none" xmlns="http://www.w3.org/2000/svg">
<path d="M10.5899 19.2148C10.4312 18.8031 10.3101 18.379 10.2266 17.9427C10.1341 17.2776 10.165 16.5521 10.3191 15.7661C10.4733 15.0103 10.7046 14.2848 11.0129 13.5895C11.3213 12.8639 11.6605 12.1535 12.0305 11.4582C12.308 11.035 12.601 10.6268 12.9093 10.2338C13.2177 9.81062 13.5723 9.43273 13.9731 9.10019L14.4357 8.73742C14.6915 8.53678 15.0452 8.61564 15.3259 8.7796C15.5884 8.93287 15.8929 9.0095 16.2395 9.0095C16.5787 9.0095 16.8562 8.94904 17.0721 8.82812C17.1954 8.73742 17.3033 8.6165 17.3958 8.46535C17.5192 8.31419 17.5654 8.16304 17.5346 8.01189C17.4729 7.40727 17.2108 6.90846 16.7483 6.51546C16.1933 6.00154 15.5766 5.72946 14.8982 5.69923C14.3123 5.63877 13.7573 5.71435 13.2331 5.92596C12.7089 6.13758 12.2155 6.40966 11.753 6.74219C11.0438 7.25612 10.4271 7.86073 9.90287 8.55604C9.40951 9.22112 8.94698 9.93154 8.51528 10.6873C8.08359 11.4733 7.71357 12.2744 7.40522 13.0907C7.1277 13.9069 6.92727 14.7533 6.80393 15.63C6.52641 17.4741 6.8656 19.1822 7.82149 20.7542C8.31485 21.5099 8.88531 22.175 9.53285 22.7494C10.1804 23.2935 10.8588 23.8377 11.568 24.3818C11.9072 24.6237 12.2309 24.8807 12.5393 25.1527C12.8476 25.3946 13.1406 25.6818 13.4181 26.0143C13.5106 26.1352 13.5877 26.2562 13.6494 26.3771L13.7019 26.5058C13.7283 26.5705 13.7419 26.6398 13.7419 26.7097C13.7419 26.818 13.7059 26.9221 13.6574 27.0189C13.6524 27.0288 13.6476 27.0387 13.643 27.0487C13.6132 27.113 13.6092 27.186 13.5871 27.2534C13.5835 27.2642 13.5794 27.2747 13.5746 27.2849C13.5437 27.3517 13.492 27.407 13.4525 27.4691C13.2482 27.7902 13.0055 28.0611 12.7243 28.2816C12.2618 28.6746 11.7992 28.9769 11.3367 29.1885C11.2345 29.2286 11.1324 29.262 11.0302 29.2888C10.9272 29.3158 10.8243 29.3441 10.7251 29.383L10.4117 29.506C10.2883 29.5362 10.1033 29.5513 9.85662 29.5513C9.51743 29.5815 9.20908 29.7176 8.93156 29.9594C8.65404 30.2315 9.47118 31.6675 9.53285 32H1.77285C0.793733 32 0 31.2063 0 30.2271V1.77285C0 0.793733 0.793733 0 1.77285 0H16.3173C16.7995 0 17.261 0.196461 17.5952 0.544088L24.2807 7.49717C24.5983 7.82742 24.7756 8.26778 24.7756 8.72593V30.2271C24.7756 31.2063 23.9819 32 23.0028 32H12.5855C13.1097 31.6372 15.407 30.3675 15.8695 29.9141C16.332 29.4606 16.6866 28.9316 16.9333 28.327C17.18 27.6921 17.2262 27.1026 17.0721 26.5585C16.9487 25.9841 16.702 25.455 16.332 24.9713C15.962 24.4574 15.5303 23.9888 15.0369 23.5656C14.5436 23.1424 14.0656 22.7494 13.6031 22.3866C13.1714 22.0541 12.7551 21.7215 12.3543 21.389C11.9534 21.0565 11.5834 20.6937 11.2442 20.3007C11.1209 20.1495 11.0129 19.9984 10.9204 19.8472C10.8525 19.714 10.7845 19.5888 10.7165 19.4719C10.6684 19.3892 10.6243 19.3041 10.5899 19.2148Z" fill="#FFBE00"/>
</svg>
