<svg width="1545" height="512" viewBox="0 0 1545 512" fill="none" xmlns="http://www.w3.org/2000/svg">
<path d="M169.439 307.437C166.899 300.849 164.961 294.064 163.626 287.083C162.146 276.442 162.64 264.833 165.106 252.257C167.573 240.165 171.273 228.556 176.207 217.431C181.141 205.823 186.568 194.456 192.488 183.331C196.928 176.559 201.615 170.03 206.549 163.742C211.483 156.97 217.156 150.924 223.57 145.603L230.97 139.799C235.064 136.588 240.723 137.85 245.215 140.474C249.414 142.926 254.286 144.152 259.832 144.152C265.259 144.152 269.699 143.185 273.153 141.25C275.126 139.799 276.853 137.864 278.333 135.446C280.307 133.027 281.047 130.609 280.553 128.19C279.567 118.516 275.373 110.535 267.973 104.247C259.092 96.0247 249.225 91.6714 238.371 91.1877C228.997 90.2203 220.116 91.4296 211.729 94.8154C203.342 98.2013 195.448 102.554 188.048 107.875C176.7 116.098 166.833 125.772 158.446 136.897C150.552 147.538 143.152 158.905 136.245 170.997C129.337 183.573 123.417 196.391 118.483 209.45C114.043 222.51 110.836 236.054 108.863 250.081C104.423 279.586 109.85 306.914 125.144 332.066C133.038 344.159 142.165 354.8 152.526 363.99C162.886 372.697 173.74 381.403 185.088 390.11C190.515 393.979 195.695 398.09 200.629 402.444C205.562 406.313 210.249 410.908 214.689 416.229C216.169 418.164 217.403 420.099 218.39 422.033L219.23 424.092C219.652 425.128 219.87 426.236 219.87 427.355C219.87 429.088 219.295 430.753 218.519 432.302C218.439 432.461 218.362 432.62 218.288 432.779C217.811 433.808 217.747 434.976 217.393 436.054C217.336 436.227 217.27 436.395 217.194 436.559C216.7 437.628 215.872 438.512 215.24 439.506C211.972 444.644 208.088 448.977 203.589 452.506C196.188 458.794 188.788 463.631 181.387 467.017C179.753 467.658 178.118 468.193 176.483 468.621C174.835 469.053 173.189 469.506 171.602 470.128L166.586 472.095C164.613 472.579 161.653 472.821 157.706 472.821C152.279 473.305 147.345 475.481 142.905 479.351C138.465 483.704 151.539 506.679 152.526 512H28.3657C12.6997 512 0 499.3 0 483.634V28.3657C0 12.6997 12.6997 0 28.3656 0H261.076C268.792 0 276.175 3.14337 281.523 8.70541L388.491 119.955C393.572 125.239 396.41 132.285 396.41 139.615V483.634C396.41 499.3 383.71 512 368.044 512H201.369C209.756 506.196 246.511 485.881 253.912 478.625C261.312 471.37 266.986 462.905 270.933 453.231C274.88 443.074 275.62 433.642 273.153 424.935C271.18 415.745 267.233 407.281 261.312 399.542C255.392 391.319 248.485 383.822 240.591 377.05C232.697 370.278 225.05 363.99 217.65 358.186C210.742 352.865 204.082 347.545 197.668 342.224C191.255 336.903 185.334 331.099 179.907 324.811C177.934 322.393 176.207 319.974 174.727 317.556C173.639 315.423 172.552 313.421 171.464 311.55C170.695 310.227 169.989 308.865 169.439 307.437Z" fill="#FFBE00"/>
<path d="M626.603 406.098C626.993 408.048 626.993 409.999 626.603 411.949C626.603 413.899 625.822 415.85 624.262 417.8C623.092 419.75 621.337 421.115 618.996 421.896C617.046 422.286 615.096 422.676 613.145 423.066C608.465 423.846 603.784 422.871 599.103 420.14C594.422 417.41 591.497 413.704 590.327 409.023C588.376 402.002 586.816 394.981 585.646 387.96C584.866 380.939 584.281 373.918 583.891 366.897C583.891 367.287 583.696 367.482 583.306 367.482C583.306 367.482 583.306 367.677 583.306 368.067C577.845 375.478 572.384 382.889 566.923 390.3C561.852 397.322 556.391 404.148 550.54 410.779C545.469 417.41 540.204 423.651 534.743 429.502C529.282 435.353 523.431 440.814 517.19 445.884C510.949 451.345 503.538 455.636 494.956 458.756C480.134 464.217 466.872 461.877 455.17 451.735C448.149 445.104 444.248 437.108 443.468 427.746C442.688 417.995 442.883 408.633 444.053 399.662C446.394 383.669 450.099 368.847 455.17 355.195C464.531 327.5 479.159 302.536 499.052 280.303C504.903 273.672 510.949 267.626 517.19 262.165C523.821 256.704 531.037 252.413 538.838 249.293C549.37 245.002 560.292 244.807 571.604 248.708C576.674 250.658 581.16 253.193 585.061 256.314C589.352 259.434 593.252 262.75 596.763 266.26C600.273 270.551 602.029 275.037 602.029 279.718C602.419 284.398 600.273 288.494 595.593 292.005C593.642 293.565 591.107 294.54 587.986 294.93C585.256 295.32 582.72 295.32 580.38 294.93C574.139 294.15 569.068 291.81 565.168 287.909C562.827 284.788 560.877 282.643 559.317 281.473H558.732C558.342 281.473 557.951 281.668 557.561 282.058C557.171 282.058 556.781 282.058 556.391 282.058C554.441 283.228 552.491 284.398 550.54 285.569C548.98 286.739 547.42 288.104 545.86 289.664C531.427 303.316 519.14 318.919 508.999 336.472C498.077 355.585 490.471 376.453 486.18 399.077C485.4 402.587 484.815 406.293 484.425 410.194C484.035 413.704 483.84 417.41 483.84 421.31C486.96 418.97 489.3 417.02 490.861 415.459C494.761 411.949 498.467 408.438 501.977 404.928C505.488 401.027 508.804 397.127 511.924 393.226C518.555 385.425 524.796 377.428 530.647 369.237C536.888 361.046 542.934 352.854 548.785 344.663C551.905 340.372 554.831 336.277 557.561 332.376C560.682 328.476 563.802 324.38 566.923 320.089C570.433 316.189 573.944 312.483 577.455 308.972C581.355 305.072 585.451 301.561 589.742 298.441C594.812 295.32 600.273 294.54 606.124 296.1C612.365 297.661 617.046 300.976 620.166 306.047C624.457 313.458 626.017 321.259 624.847 329.451L622.507 348.759C621.727 362.411 622.312 376.258 624.262 390.3C624.262 391.081 624.262 392.056 624.262 393.226C624.652 394.396 624.847 395.371 624.847 396.151L626.603 406.098Z" fill="black"/>
<path d="M805.152 388.545C805.542 395.176 805.737 401.612 805.737 407.853C805.737 414.094 805.347 420.53 804.567 427.161C803.787 432.622 801.056 436.523 796.376 438.863C791.695 440.814 786.819 440.814 781.748 438.863C773.557 436.133 769.071 430.672 768.291 422.481C767.511 416.24 767.121 409.999 767.121 403.758C767.121 397.517 766.926 391.276 766.536 385.035C766.146 379.574 765.756 373.918 765.366 368.067C764.976 362.216 764.391 356.365 763.61 350.514C760.49 329.841 755.224 310.338 747.813 292.005L741.962 280.303C741.572 279.913 741.377 279.523 741.377 279.133L738.451 280.888C735.331 284.398 732.21 289.079 729.09 294.93C715.048 319.114 705.491 344.468 700.42 370.992C698.47 382.304 697.3 393.616 696.91 404.928C696.52 415.85 696.91 426.966 698.08 438.278C698.47 441.789 697.69 444.519 695.74 446.469C693.789 448.42 691.254 449.785 688.133 450.565C685.403 451.345 682.477 451.54 679.357 451.15C676.236 451.15 673.701 450.565 671.751 449.395C667.46 447.445 664.34 444.519 662.389 440.619C660.829 436.718 659.659 432.427 658.879 427.746C658.099 423.066 657.903 418.385 658.294 413.704C658.294 409.023 658.294 404.928 658.294 401.417C659.074 381.914 661.414 362.801 665.315 344.078C671.946 317.164 682.087 292.59 695.74 270.356C700.03 263.725 705.296 258.069 711.537 253.388C717.778 248.708 724.994 245.782 733.186 244.612C743.327 243.442 752.884 245.977 761.855 252.218C768.096 256.899 773.362 263.14 777.653 270.941C783.894 283.033 788.965 295.32 792.865 307.802C796.766 320.284 799.691 333.156 801.642 346.418C803.202 360.461 804.372 374.503 805.152 388.545Z" fill="black"/>
<path d="M1042.12 232.325C1044.46 242.467 1044.85 252.413 1043.29 262.165C1041.73 272.306 1039 282.253 1035.1 292.005C1031.59 301.366 1027.5 310.728 1022.82 320.089C1013.84 338.032 1003.9 355.39 992.976 372.163C982.055 388.935 970.353 405.123 957.871 420.725C951.63 428.137 945.194 435.158 938.563 441.789C931.932 448.42 925.106 455.051 918.084 461.682C914.574 464.802 911.063 467.728 907.553 470.458C904.042 473.189 900.532 475.919 897.021 478.65L887.66 485.086C887.66 486.646 887.855 487.816 888.245 488.596V489.181V490.937C888.245 491.327 888.245 491.522 888.245 491.522C888.635 491.912 888.83 492.497 888.83 493.277C889.22 496.007 888.83 499.128 887.66 502.638C885.319 507.319 881.419 510.245 875.958 511.415C872.837 512.195 869.912 512.195 867.181 511.415C864.451 510.635 861.72 509.465 858.99 507.904C851.189 503.614 845.728 496.983 842.607 488.011C839.487 479.43 837.537 471.043 836.756 462.852C835.976 456.611 835.196 450.565 834.416 444.714C834.026 438.863 833.441 432.817 832.661 426.576C830.71 404.343 829.54 382.304 829.15 360.461C828.76 338.227 828.955 315.994 829.735 293.76L831.491 263.92C827.59 263.53 823.884 262.36 820.374 260.41C816.083 258.069 812.963 254.364 811.012 249.293C809.062 244.222 809.842 239.541 813.353 235.251L822.129 225.889C824.469 223.549 826.81 221.403 829.15 219.453C831.881 217.113 834.611 214.772 837.342 212.432L839.682 194.879C840.462 189.418 841.437 183.957 842.607 178.496C843.778 172.645 845.533 166.99 847.873 161.529C849.824 156.458 853.139 153.532 857.82 152.752C862.891 151.582 867.571 151.777 871.862 153.337C876.153 154.508 879.858 157.238 882.979 161.529C886.489 165.819 887.269 170.305 885.319 174.986L881.809 186.103C895.461 180.642 908.723 176.741 921.595 174.401C930.566 172.84 939.343 171.865 947.924 171.475C956.896 171.085 965.867 171.865 974.839 173.816C984.59 175.766 993.952 179.081 1002.92 183.762C1012.28 188.053 1020.28 194.294 1026.91 202.485C1034.71 211.457 1039.78 221.403 1042.12 232.325ZM1001.75 259.824C1002.92 253.583 1003.12 247.147 1002.34 240.516C1001.56 233.495 999.217 227.254 995.317 221.793C991.806 217.113 987.321 213.797 981.86 211.847C976.399 209.896 970.548 208.726 964.307 208.336C958.456 207.556 952.41 207.556 946.169 208.336C940.318 209.116 934.857 209.896 929.786 210.677C923.935 212.237 918.084 213.992 912.233 215.942C906.383 217.503 900.727 219.648 895.266 222.378C892.145 224.329 889.025 226.279 885.904 228.229C882.784 229.79 879.663 231.74 876.543 234.08C876.543 234.86 876.348 235.641 875.958 236.421C875.958 237.201 875.958 237.981 875.958 238.761C873.227 270.746 871.862 302.731 871.862 334.717C872.252 366.702 874.592 398.492 878.883 430.087L880.638 441.789L885.319 438.278L906.383 416.045C913.014 409.023 919.255 401.612 925.106 393.811C931.347 386.01 937.198 378.209 942.658 370.407C948.899 361.826 954.75 353.244 960.211 344.663C965.672 336.082 971.133 327.305 976.594 318.334C981.665 308.972 986.54 299.416 991.221 289.664C995.902 279.913 999.413 269.966 1001.75 259.824ZM888.83 491.522C888.44 491.132 888.245 490.937 888.245 490.937V489.181L888.83 491.522Z" fill="black"/>
<path d="M1228.7 325.94C1229.48 336.862 1228.31 347.394 1225.19 357.535C1223.63 365.727 1220.89 373.918 1216.99 382.109C1212.31 392.251 1206.66 402.002 1200.03 411.364C1193.4 420.725 1185.79 428.917 1177.21 435.938C1170.97 441.009 1164.14 445.299 1156.73 448.81C1149.32 452.32 1141.71 454.466 1133.91 455.246C1127.28 456.026 1120.65 455.246 1114.02 452.905C1107.78 450.955 1101.93 448.03 1096.46 444.129C1091.39 439.838 1087.1 434.963 1083.59 429.502C1080.08 423.651 1077.74 417.41 1076.57 410.779C1075.4 404.148 1075.01 397.907 1075.4 392.056C1076.18 385.815 1077.35 379.574 1078.91 373.333C1079.69 369.042 1080.67 364.946 1081.84 361.046C1083.01 356.755 1084.18 352.464 1085.35 348.174C1085.74 346.613 1086.13 345.053 1086.52 343.493C1087.3 341.933 1087.3 340.567 1086.52 339.397C1083.79 336.667 1082.23 333.741 1081.84 330.621C1081.45 327.5 1081.84 324.38 1083.01 321.259C1084.57 318.139 1086.13 315.213 1087.69 312.483C1090.81 305.852 1094.71 300.001 1099.39 294.93C1104.46 289.469 1109.73 284.398 1115.19 279.718C1117.53 277.767 1119.67 276.207 1121.62 275.037C1123.96 273.477 1126.3 272.111 1128.65 270.941C1132.16 268.991 1135.47 266.651 1138.59 263.92C1141.71 261.19 1145.42 259.434 1149.71 258.654C1151.66 258.264 1153.41 258.264 1154.97 258.654C1156.53 259.044 1158.29 259.239 1160.24 259.239C1162.19 259.239 1163.95 259.239 1165.51 259.239C1167.07 259.239 1168.82 259.434 1170.77 259.824C1177.79 260.995 1184.23 262.945 1190.08 265.675C1202.95 271.916 1212.7 280.888 1219.33 292.59C1222.46 297.661 1224.6 303.121 1225.77 308.972C1227.33 314.433 1228.31 320.089 1228.7 325.94ZM1182.47 337.057C1183.25 332.376 1183.64 327.695 1183.64 323.015C1183.64 318.334 1182.86 313.848 1181.3 309.557C1180.52 307.217 1179.35 304.487 1177.79 301.366C1176.23 298.246 1173.89 296.88 1170.77 297.27C1165.31 297.661 1160.44 299.611 1156.14 303.121C1152.24 306.242 1148.73 310.143 1145.61 314.823C1142.49 319.504 1139.76 324.575 1137.42 330.036C1135.47 335.107 1133.72 339.787 1132.16 344.078C1129.82 351.099 1127.67 358.315 1125.72 365.726C1124.16 373.138 1122.6 380.549 1121.04 387.96C1120.65 389.13 1120.26 391.471 1119.87 394.981C1119.48 398.102 1119.28 401.417 1119.28 404.928C1119.67 408.048 1120.26 410.974 1121.04 413.704C1121.82 416.045 1123.18 417.215 1125.13 417.215C1125.52 417.215 1126.89 416.825 1129.23 416.045C1142.88 408.633 1154 398.297 1162.58 385.035C1169.6 373.723 1175.26 361.826 1179.55 349.344L1182.47 337.057Z" fill="black"/>
<path d="M1349.49 258.654C1353.78 257.094 1358.27 256.119 1362.95 255.729C1367.63 255.339 1372.11 255.924 1376.41 257.484C1380.7 259.044 1384.4 261.775 1387.52 265.675C1391.03 269.576 1392.01 273.867 1390.45 278.547C1388.89 284.008 1385.77 287.324 1381.09 288.494C1376.8 289.274 1372.31 290.054 1367.63 290.834C1364.12 291.615 1361 293.175 1358.27 295.515C1355.54 297.856 1353 300.391 1350.66 303.121C1345.2 309.362 1340.13 315.603 1335.45 321.844C1326.09 335.887 1318.87 350.514 1313.8 365.726C1310.29 375.088 1307.95 384.449 1306.78 393.811C1306.39 396.151 1306.58 397.322 1307.36 397.322C1308.53 397.322 1309.9 396.932 1311.46 396.151C1314.97 394.981 1318.48 393.616 1321.99 392.056C1325.5 390.496 1329.01 388.74 1332.52 386.79C1339.15 383.279 1345.59 379.379 1351.83 375.088C1358.07 370.407 1364.31 365.922 1370.55 361.631C1375.23 358.12 1379.72 356.365 1384.01 356.365C1386.74 356.365 1389.67 357.145 1392.79 358.705C1395.91 359.876 1398.44 361.631 1400.39 363.971C1402.73 366.312 1404.29 369.042 1405.07 372.163C1405.85 374.893 1405.27 377.818 1403.32 380.939C1402.15 382.889 1400.59 384.645 1398.64 386.205C1397.08 387.765 1395.52 389.325 1393.96 390.886C1388.11 396.346 1382.06 401.807 1375.82 407.268C1369.58 412.339 1362.95 417.02 1355.93 421.31C1349.3 425.601 1342.08 429.307 1334.28 432.427C1326.87 435.548 1319.26 437.498 1311.46 438.278C1304.44 439.058 1297.61 438.473 1290.98 436.523C1284.35 434.573 1278.5 430.867 1273.43 425.406C1266.8 419.165 1262.51 411.559 1260.56 402.587C1259 396.736 1258.61 390.691 1259.39 384.45C1260.56 378.209 1261.73 372.358 1262.9 366.897C1266.41 351.294 1272.06 336.472 1279.86 322.43C1287.67 308.387 1297.22 295.71 1308.53 284.398C1317.12 276.597 1326.87 269.576 1337.79 263.335C1342.08 261.385 1345.98 259.824 1349.49 258.654Z" fill="black"/>
<path d="M1543.61 385.035C1545.17 392.056 1544.98 398.882 1543.03 405.513C1541.08 412.144 1537.96 418.19 1533.67 423.651C1532.11 425.991 1530.35 428.137 1528.4 430.087C1526.45 431.647 1524.5 433.402 1522.55 435.353C1517.48 440.423 1512.41 444.909 1507.34 448.81C1502.27 452.71 1497.39 455.636 1492.71 457.586C1487.64 460.707 1481.59 463.827 1474.57 466.948C1470.28 468.898 1465.6 468.898 1460.53 466.948C1455.46 464.997 1451.56 462.267 1448.83 458.756C1446.1 455.636 1444.73 451.93 1444.73 447.64C1444.73 442.959 1446.88 439.448 1451.17 437.108C1459.36 432.037 1466.77 426.771 1473.4 421.31L1493.3 406.098C1496.42 402.977 1499.15 399.662 1501.49 396.151L1502.66 392.641V387.96C1502.66 387.96 1502.46 387.765 1502.07 387.375L1489.79 380.354C1483.93 377.623 1477.89 375.478 1471.65 373.918C1465.8 371.967 1460.34 369.042 1455.26 365.141C1447.07 358.9 1441.42 351.684 1438.3 343.493C1437.13 340.762 1436.35 338.032 1435.96 335.302C1435.57 332.181 1435.37 329.061 1435.37 325.94C1435.76 318.919 1437.32 312.288 1440.05 306.047C1442.78 299.806 1445.9 293.955 1449.41 288.494C1455.26 279.133 1461.9 270.356 1469.31 262.165C1477.11 253.583 1486.66 247.733 1497.98 244.612C1503.44 243.442 1508.51 243.832 1513.19 245.782C1517.87 247.342 1521.77 250.268 1524.89 254.559C1527.62 258.459 1528.01 262.75 1526.06 267.431C1524.5 271.721 1521.58 274.452 1517.28 275.622C1514.94 276.402 1513.58 276.792 1513.19 276.792C1512.02 277.572 1510.85 278.352 1509.68 279.133C1508.51 279.913 1507.53 280.693 1506.75 281.473C1502.07 286.154 1497.78 291.225 1493.88 296.685C1490.37 302.146 1487.05 307.607 1483.93 313.068C1482.37 315.408 1481.01 317.749 1479.84 320.089C1479.06 322.43 1478.28 324.965 1477.5 327.695V334.717C1477.5 335.107 1477.89 336.082 1478.67 337.642V338.227L1480.42 339.397L1493.3 344.078C1500.71 346.808 1507.73 350.124 1514.36 354.025C1520.6 357.535 1526.45 361.826 1531.91 366.897C1537.76 371.577 1541.66 377.623 1543.61 385.035Z" fill="black"/>
</svg>
